<svg width="181" height="37" fill="none" xmlns="http://www.w3.org/2000/svg"><path d="m2.375 13.355 4.494-.72 6.6 10.82.203-.032 2.892-12.34 4.493-.72 2.76 17.235-3.534.566-1.796-11.218-.143.023-2.677 11.848-2.407.386L7.01 18.74l-.143.023 1.803 11.26-3.534.566-2.761-17.235ZM34.688 26.275l-3.932.422 4.129-17.998 4.728-.508 7.846 16.713-3.932.422-5.785-12.922-.135.014-2.919 13.857Zm-.978-6.795 9.288-.997.307 2.864-9.287.997-.308-2.864ZM54.464 24.357 53.395 6.935l6.874-.421c1.316-.08 2.453.086 3.412.5.964.407 1.716 1.024 2.257 1.85.545.82.853 1.807.924 2.958.07 1.157-.118 2.167-.566 3.032-.448.858-1.132 1.538-2.052 2.038-.914.5-2.04.791-3.379.873l-4.602.283-.182-2.96 4.007-.246c.703-.043 1.281-.176 1.735-.397.453-.222.781-.532.984-.931.21-.4.296-.887.26-1.46-.035-.578-.18-1.059-.438-1.441-.25-.383-.618-.662-1.101-.838-.478-.181-1.072-.25-1.78-.207l-2.484.153.883 14.41-3.683.226Zm8.922-8.505 4.816 7.663-4.066.249-4.722-7.669 3.972-.243ZM78.561 5.742l.471 17.449-3.689.1-.47-17.449 3.688-.1ZM90.251 23.041l-3.954-.037 6.188-17.397 4.756.044 5.854 17.51-3.955-.037-4.246-13.506-.136-.001L90.25 23.04Zm-.183-6.863 9.34.088-.026 2.88-9.34-.087.026-2.88ZM110.118 23.437l.942-17.43 11.54.624-.164 3.039-7.855-.425-.224 4.153 7.089.383-.165 3.038-7.089-.383-.389 7.2-3.685-.199ZM129.97 24.68l1.646-17.376 3.674.348L133.931 22l7.45.705-.287 3.03-11.124-1.055ZM154.645 9.799l-2.204 17.315-3.661-.466 2.204-17.315 3.661.466ZM166.828 11.533l2.508 6.441.135.022 4.455-5.296 4.113.676-6.672 7.748 3.957 9.495-4.188-.689-2.565-6.459-.135-.022-4.498 5.298-4.172-.686 6.807-7.725-3.874-9.482 4.129.68Z" fill="red"/></svg>